HIERARCHY
ROOT Hips
{
	OFFSET 0.00000 0.00000 0.00000
	CHANNELS 6 Xposition Yposition Zposition Zrotation Yrotation Xrotation 
	JOINT LHipJoint
	{
		OFFSET 0 0 0
		CHANNELS 3 Zrotation Yrotation Xrotation
		JOINT LeftHip
		{
			OFFSET 1.81638 -1.86202 0.89635
			CHANNELS 3 Zrotation Yrotation Xrotation
			JOINT LeftKnee
			{
				OFFSET 2.63464 -7.23861 0.00000
				CHANNELS 3 Zrotation Yrotation Xrotation
				JOINT LeftAnkle
				{
					OFFSET 2.45871 -6.75336 0.00000
					CHANNELS 3 Zrotation Yrotation Xrotation
					JOINT LeftToe
					{
						OFFSET 0.34235 -0.94059 2.20020
						CHANNELS 3 Zrotation Yrotation Xrotation
						End Site
						{
							OFFSET 0.00000 -0.00000 1.18611
						}
					}
				}
			}
		}
	}
	JOINT RHipJoint
	{
		OFFSET 0 0 0
		CHANNELS 3 Zrotation Yrotation Xrotation
		JOINT RightHip
		{
			OFFSET -1.84405 -1.86203 0.89635
			CHANNELS 3 Zrotation Yrotation Xrotation
			JOINT RightKnee
			{
				OFFSET -2.71067 -7.44751 0.00000
				CHANNELS 3 Zrotation Yrotation Xrotation
				JOINT RightAnkle
				{
					OFFSET -2.47159 -6.79060 0.00000
					CHANNELS 3 Zrotation Yrotation Xrotation
					JOINT RightToe
					{
						OFFSET -0.26223 -0.72048 2.36007
						CHANNELS 3 Zrotation Yrotation Xrotation
						End Site
						{
							OFFSET -0.00000 -0.00000 1.23343
						}
					}
				}
			}
		}
	}
	JOINT lowerback
	{
		OFFSET 0 0 0
		CHANNELS 3 Zrotation Yrotation Xrotation
		JOINT Chest
		{
			OFFSET 0.02089 1.99248 -0.22512
			CHANNELS 3 Zrotation Yrotation Xrotation
			JOINT Chest2
			{
				OFFSET 0.01476 2.01356 -0.03079
				CHANNELS 3 Zrotation Yrotation Xrotation
				JOINT lowerneck
				{
					OFFSET 0 0 0
					CHANNELS 3 Zrotation Yrotation Xrotation
					JOINT Neck
					{
						OFFSET 0.04846 1.65098 0.06663
						CHANNELS 3 Zrotation Yrotation Xrotation
						JOINT Head
						{
							OFFSET -0.06061 1.60634 -0.07565
							CHANNELS 3 Zrotation Yrotation Xrotation
							End Site
							{
								OFFSET -0.02954 1.73562 -0.03642
							}
						}
					}
				}
				JOINT LeftCollar
				{
					OFFSET 0 0 0
					CHANNELS 3 Zrotation Yrotation Xrotation
					JOINT LeftShoulder
					{
						OFFSET 3.45234 1.47051 -0.06993
CHANNELS 3 Zrotation Xrotation Yrotation
						JOINT LeftElbow
						{
OFFSET 0 -5.493130 0.000000
CHANNELS 3 Zrotation Xrotation Yrotation
							JOINT LeftWrist
							{
OFFSET 0 -3.290370 0.000000
CHANNELS 3 Zrotation Xrotation Yrotation
								JOINT lhand
								{
									OFFSET 0 0 0
CHANNELS 3 Zrotation Xrotation Yrotation
									JOINT LFingers
									{
OFFSET 0 -0.729660 0.000000
CHANNELS 3 Zrotation Xrotation Yrotation
										End Site
										{
OFFSET 0 -0.588270 0.000000
										}
									}
								}
								JOINT LThumb
								{
OFFSET 0 0.000000 0.000000
CHANNELS 3 Zrotation Xrotation Yrotation
									End Site
									{
OFFSET 0 -0.597250 0.597250
									}
								}
							}
						}
					}
				}
				JOINT RightCollar
				{
					OFFSET 0 0 0
					CHANNELS 3 Zrotation Yrotation Xrotation
					JOINT RightShoulder
					{
						OFFSET -3.41935 1.44327 0.20453
CHANNELS 3 Zrotation Xrotation Yrotation
						JOINT RightElbow
						{
OFFSET 0 -5.236840 0.000000
CHANNELS 3 Zrotation Xrotation Yrotation
							JOINT RightWrist
							{
OFFSET 0 -3.382510 0.000000
CHANNELS 3 Zrotation Xrotation Yrotation
								JOINT rhand
								{
									OFFSET 0 0 0
CHANNELS 3 Zrotation Xrotation Yrotation
									JOINT RFingers
									{
OFFSET 0 -0.691450 0.000000
CHANNELS 3 Zrotation Xrotation Yrotation
										End Site
										{
OFFSET 0 -0.557470 0.000000
										}
									}
								}
								JOINT RThumb
								{
OFFSET 0 0.000000 0.000000
CHANNELS 3 Zrotation Xrotation Yrotation
									End Site
									{
OFFSET 0 -0.565980 0.565980
									}
								}
							}
						}
					}
				}
			}
		}
	}
}
MOTION
Frames: 9
Frame Time: 0.008333333333333333
-2.999880 15.714785 -0.850403 -11.183138 87.168442 8.128316 0.000000 0.000000 0.000000 -10.512128 -7.232871 -59.283138 14.249507 19.186610 72.963769 1.265271 -23.966692 -24.641562 0.020033 0.912094 2.507018 0.000000 0.000000 0.000000 13.819661 19.549185 -46.787227 -14.737396 -19.321518 74.443698 -3.203825 10.581221 -32.342440 -1.500713 7.734953 -21.913356 -1.721725 0.733348 31.837210 0.593257 1.178341 7.846326 1.181724 0.868568 -8.547118 6.225786 1.491770 -1.509394 -7.738557 1.615928 -12.098508 -3.427030 0.960351 -3.212804 0.000000 0.000000 0.000000 18.148175 9.066235 -31.014796 29.277447 -40.264196 10.940222 -5.764286 9.174942 -4.582035 0.000000 0.000000 0.000000 -7.125000 0.000000 0.000000 -25.976995 33.548160 -8.014843 0.000000 0.000000 0.000000 -14.127791 8.747872 41.289529 -23.975500 -35.138329 -7.692458 -13.261959 7.316574 17.869210 0.000000 0.000000 0.000000 7.125000 0.000000 0.000000 14.187605 47.788403 -0.993281
-2.836379 15.604117 -0.862229 -13.805066 87.373175 5.694971 0.000000 0.000000 0.000000 -10.167156 -7.549267 -59.826075 14.923636 19.369943 75.006242 1.369372 -24.193976 -25.313342 0.010317 0.650696 1.788095 0.000000 0.000000 0.000000 13.781504 19.539795 -47.160884 -15.368125 -19.476982 76.342708 -3.298324 10.518982 -32.836782 -1.730794 8.280050 -23.568689 -1.702370 0.699822 31.834445 0.592335 1.138519 7.796472 1.184229 0.848939 -8.601523 6.063194 1.450611 -1.947476 -7.540832 1.561756 -12.485174 -3.340519 0.937458 -3.264883 0.000000 0.000000 0.000000 18.943911 7.607487 -31.141391 30.479000 -41.298406 11.725194 -5.042779 9.344110 -4.170343 0.000000 0.000000 0.000000 -7.125000 0.000000 0.000000 -25.321318 33.219247 -7.997553 0.000000 0.000000 0.000000 -14.365042 8.291825 41.188403 -23.945783 -35.106868 -7.675348 -14.811129 7.729956 18.251387 0.000000 0.000000 0.000000 7.125000 0.000000 0.000000 12.874739 48.385063 -1.090347
-2.666282 15.512446 -0.873780 -15.920157 87.575726 3.739445 0.000000 0.000000 0.000000 -9.803582 -7.983463 -60.047116 15.473693 19.500841 76.659075 1.472912 -24.444996 -25.978917 0.002609 0.311136 0.854844 0.000000 0.000000 0.000000 13.763945 19.514734 -47.361837 -15.921922 -19.595812 77.998561 -3.374154 10.407826 -33.230689 -1.924146 8.705234 -24.878220 -1.731842 0.705015 31.816231 0.593380 1.130071 7.724336 1.205463 0.844131 -8.675956 5.897701 1.371918 -2.470581 -7.185934 1.488947 -12.619128 -3.418782 0.882770 -3.486386 0.000000 0.000000 0.000000 19.747854 6.103391 -31.224030 31.892842 -42.458156 12.669591 -4.198009 9.420752 -3.791412 0.000000 0.000000 0.000000 -7.125000 0.000000 0.000000 -24.585165 32.923332 -7.916782 0.000000 0.000000 0.000000 -14.705859 7.934809 41.259293 -24.006758 -35.171380 -7.710459 -16.319055 8.016497 18.614778 0.000000 0.000000 0.000000 7.125000 0.000000 0.000000 11.575430 48.969087 -1.145271
-2.490161 15.439037 -0.884337 -16.703743 87.770622 3.122669 0.000000 0.000000 0.000000 -9.502057 -8.497088 -59.986476 15.890533 19.590075 77.905431 1.594002 -24.665930 -26.710665 0.000170 -0.036074 -0.099076 0.000000 0.000000 0.000000 13.722818 19.501242 -47.424539 -16.393842 -19.685070 79.402835 -3.434966 10.253900 -33.546051 -2.078719 9.027864 -25.882755 -1.843510 0.748413 31.750793 0.584433 1.138322 7.610175 1.257026 0.846926 -8.777696 5.742891 1.267661 -3.036024 -6.931153 1.366014 -12.824484 -3.406659 0.815175 -3.592340 0.000000 0.000000 0.000000 20.564981 4.661385 -31.289338 33.572555 -43.762597 13.817523 -3.036967 9.320298 -3.422315 0.000000 0.000000 0.000000 -7.125000 0.000000 0.000000 -23.615677 32.649104 -7.723454 0.000000 0.000000 0.000000 -15.146978 7.690104 41.490580 -24.167291 -35.340612 -7.803204 -17.649695 8.194388 18.925951 0.000000 0.000000 0.000000 7.125000 0.000000 0.000000 10.410709 49.484494 -1.161890
-2.306256 15.387619 -0.893605 -15.255829 87.951406 4.756669 0.000000 0.000000 0.000000 -9.360810 -9.040055 -59.608431 16.146316 19.640092 78.667392 1.760938 -24.773647 -27.613627 0.003033 -0.342371 -0.940768 0.000000 0.000000 0.000000 13.639784 19.509127 -47.311134 -16.757191 -19.745697 80.479880 -3.485764 10.077961 -33.810495 -2.194282 9.259204 -26.609821 -2.050268 0.822934 31.632637 0.546925 1.146222 7.431296 1.331612 0.849450 -8.929456 5.609336 1.148130 -3.614086 -6.762349 1.209388 -13.110293 -3.317150 0.741588 -3.596405 0.000000 0.000000 0.000000 21.423456 3.409112 -31.371677 35.627893 -45.248257 15.259929 -1.470080 8.926322 -3.074994 0.000000 0.000000 0.000000 -7.125000 0.000000 0.000000 -22.345126 32.408253 -7.385841 0.000000 0.000000 0.000000 -15.681620 7.602612 41.871924 -24.466361 -35.653293 -7.976892 -18.664105 8.256804 19.143834 0.000000 0.000000 0.000000 7.125000 0.000000 0.000000 9.505778 49.864225 -1.148424
-2.113714 15.358043 -0.901569 -11.980696 88.115326 8.244534 0.000000 0.000000 0.000000 -9.406747 -9.544131 -58.951812 16.248741 19.659255 78.971771 1.985385 -24.703884 -28.715336 0.008237 -0.585414 -1.608702 0.000000 0.000000 0.000000 13.551768 19.531054 -47.000189 -16.996526 -19.782341 81.187705 -3.534773 9.894207 -34.065656 -2.280846 9.427995 -27.143555 -2.310284 0.910424 31.451081 0.481237 1.144167 7.184768 1.409382 0.846763 -9.128390 5.500240 1.022921 -4.177930 -6.597646 1.047514 -13.390369 -3.234545 0.664981 -3.601705 0.000000 0.000000 0.000000 22.338988 2.411802 -31.487328 38.100828 -46.900195 17.040231 0.384699 8.239283 -2.726314 0.000000 0.000000 0.000000 -7.125000 0.000000 0.000000 -20.853103 32.170667 -6.956255 0.000000 0.000000 0.000000 -16.270890 7.698430 42.324850 -24.925289 -36.127314 -8.245886 -19.384425 8.225333 19.237465 0.000000 0.000000 0.000000 7.125000 0.000000 0.000000 8.838999 50.074220 -1.113207
-1.909057 15.356590 -0.908052 -8.024927 88.262591 12.454498 0.000000 0.000000 0.000000 -9.650646 -9.937567 -58.004238 16.173519 19.645194 78.748139 2.277020 -24.384933 -30.030060 0.014407 -0.773589 -2.126058 0.000000 0.000000 0.000000 13.539116 19.541554 -46.408540 -17.055106 -19.790792 81.360704 -3.586977 9.694820 -34.337715 -2.341162 9.543136 -27.509603 -2.566459 0.990523 31.169195 0.398308 1.125043 6.855669 1.472573 0.834558 -9.373014 5.419346 0.900940 -4.720005 -6.448147 0.891392 -13.653053 -3.163449 0.590842 -3.604870 0.000000 0.000000 0.000000 23.314763 1.782695 -31.623241 41.165857 -48.731990 19.315406 2.221325 7.259945 -2.396163 0.000000 0.000000 0.000000 -7.125000 0.000000 0.000000 -19.375636 31.937657 -6.523065 0.000000 0.000000 0.000000 -16.926794 8.042305 42.839207 -25.607427 -36.817176 -8.651767 -19.834767 8.017377 19.167682 0.000000 0.000000 0.000000 7.125000 0.000000 0.000000 8.380358 50.074373 -1.054844
-1.691911 15.381257 -0.913872 -5.520769 88.413338 15.245913 0.000000 0.000000 0.000000 -9.990443 -10.207049 -56.836882 15.955353 19.603113 78.098730 2.598801 -23.889871 -31.411084 0.020059 -0.913296 -2.510366 0.000000 0.000000 0.000000 13.676992 19.500996 -45.528561 -16.929947 -19.772474 80.991010 -3.642135 9.467566 -34.625944 -2.390833 9.636708 -27.808082 -2.754906 1.048725 30.774084 0.323518 1.096368 6.464565 1.510132 0.815382 -9.632692 5.362377 0.788320 -5.241054 -6.324525 0.747049 -13.882306 -3.106255 0.522218 -3.599671 0.000000 0.000000 0.000000 24.310903 1.509114 -31.745391 44.835506 -50.686157 22.111819 3.832109 6.176349 -2.056547 0.000000 0.000000 0.000000 -7.125000 0.000000 0.000000 -18.068286 31.677641 -6.159810 0.000000 0.000000 0.000000 -17.631583 8.616988 43.368716 -26.501056 -37.699082 -9.192379 -20.181179 7.633307 18.984671 0.000000 0.000000 0.000000 7.125000 0.000000 0.000000 7.988586 49.940777 -0.978513
-1.456822 15.441554 -0.919601 -7.930028 88.592971 13.146689 0.000000 0.000000 0.000000 -10.316635 -10.331834 -55.424853 15.577000 19.523819 76.968472 2.897532 -23.307593 -32.643174 0.024857 -1.016724 -2.794840 0.000000 0.000000 0.000000 14.084525 19.349818 -44.242326 -16.551067 -19.711701 79.869104 -3.689018 9.220725 -34.874117 -2.423555 9.697595 -28.002843 -2.803338 1.064735 30.219548 0.290938 1.060674 6.012950 1.518760 0.788407 -9.881053 5.324065 0.691285 -5.698768 -6.242542 0.621459 -14.066570 -3.067789 0.462948 -3.589485 0.000000 0.000000 0.000000 25.265973 1.730261 -31.794170 49.376184 -52.717880 25.682965 5.054592 5.200130 -1.635904 0.000000 0.000000 0.000000 -7.125000 0.000000 0.000000 -17.047124 31.317051 -5.935872 0.000000 0.000000 0.000000 -18.411976 9.469663 43.935488 -27.653731 -38.792465 -9.907133 -20.564601 7.038916 18.756636 0.000000 0.000000 0.000000 7.125000 0.000000 0.000000 7.549471 49.765220 -0.891687
